HIERARCHY
ROOT Hips
{
	OFFSET 0.000000 0.000000 0.000000
	CHANNELS 6 Xposition Yposition Zposition Zrotation Yrotation Xrotation 
	JOINT LHipJoint
	{
		OFFSET 0.000000 0.000000 0.000000
		CHANNELS 3 Zrotation Yrotation Xrotation
		JOINT LeftUpLeg
		{
			OFFSET 1.363060 -1.794630 0.839290
			CHANNELS 3 Zrotation Yrotation Xrotation
			JOINT LeftLeg
			{
				OFFSET 2.448110 -6.726130 0.000000
				CHANNELS 3 Zrotation Yrotation Xrotation
				JOINT LeftFoot
				{
					OFFSET 2.562200 -7.039590 0.000000
					CHANNELS 3 Zrotation Yrotation Xrotation
					JOINT LeftToeBase
					{
						OFFSET 0.157640 -0.433110 2.322550
						CHANNELS 3 Zrotation Yrotation Xrotation
						End Site
						{
							OFFSET 0.000000 0.000000 0.000000
						}
					}
				}
			}
		}
	}
	JOINT RHipJoint
	{
		OFFSET 0.000000 0.000000 0.000000
		CHANNELS 3 Zrotation Yrotation Xrotation
		JOINT RightUpLeg
		{
			OFFSET -1.305520 -1.794630 0.839290
			CHANNELS 3 Zrotation Yrotation Xrotation
			JOINT RightLeg
			{
				OFFSET -2.542530 -6.985550 0.000000
				CHANNELS 3 Zrotation Yrotation Xrotation
				JOINT RightFoot
				{
					OFFSET -2.568260 -7.056230 0.000000
					CHANNELS 3 Zrotation Yrotation Xrotation
					JOINT RightToeBase
					{
						OFFSET -0.164730 -0.452590 2.363150
						CHANNELS 3 Zrotation Yrotation Xrotation
						End Site
						{
							OFFSET 0.000000 0.000000 0.000000
						}
					}
				}
			}
		}
	}
}
MOTION
Frames: 33
Frame Time: 0.008333
-13.532082 17.013723 -1.448068 -71.859590 89.582294 -48.708459 -8.225566 1.708138 4.708441 -11.100238 -4.371184 -44.932463 -2.569346 0.186640 22.132656 0.944236 4.035274 -3.993869 0.635000 0.000000 -41.899701 11.811322 -4.028440 1.765911 3.137137 -2.556241 -4.963121 0.506692 -1.395848 20.687154 0.359555 12.485507 24.935858 6.435500 -0.000000 -92.546901
-13.355430 16.957361 -1.456659 -72.779327 89.698799 -50.033483 -8.191680 1.707468 4.625424 -11.082767 -4.843866 -45.067912 -2.369710 0.434848 25.174521 1.088155 4.511708 -5.232196 0.522300 0.000001 -39.684100 11.943593 -4.011456 1.653465 2.664156 -3.010801 -4.885134 0.390534 -1.487762 22.382786 0.320080 13.598190 25.484026 7.152800 0.000000 -91.959400
-13.181101 16.907226 -1.463770 -74.735983 89.855225 -52.406075 -8.159638 1.689290 4.516346 -11.149623 -5.241858 -44.990233 -2.192443 0.639751 27.958676 1.235157 5.028485 -6.517783 0.385900 -0.000000 -37.615600 12.085034 -3.990794 1.539879 2.159630 -3.458244 -4.913120 0.267928 -1.585428 24.219593 0.256717 14.647843 26.197461 7.899400 -0.000000 -90.896200
-13.008784 16.864596 -1.469214 102.100085 89.949541 124.018603 -8.130860 1.656343 4.389879 -11.303369 -5.552531 -44.686799 -2.047546 0.792741 30.352534 1.382224 5.570174 -7.819311 0.225700 0.000000 -35.910500 12.230372 -3.968989 1.430506 1.630112 -3.890336 -5.071938 0.143146 -1.687836 26.187056 0.167782 15.560685 27.075037 8.641000 -0.000000 -89.316300
-12.838047 16.830348 -1.473075 97.756103 89.720608 119.280456 -8.109908 1.612841 4.253796 -11.537584 -5.759894 -44.167397 -1.940439 0.892589 32.279343 1.526301 6.113967 -9.110817 0.042600 0.000000 -34.719700 12.369732 -3.947186 1.330501 1.087041 -4.296675 -5.378872 0.020525 -1.793321 28.268756 0.053876 16.250028 28.097281 9.323900 0.000000 -87.210701
-12.668583 16.804979 -1.475402 92.295698 89.455333 113.447742 -8.100064 1.564211 4.113374 -11.847361 -5.854306 -43.443932 -1.872858 0.942015 33.702734 1.664872 6.640482 -10.364131 -0.159700 -0.000000 -34.100400 12.494870 -3.924034 1.241339 0.532226 -4.676084 -5.837810 -0.096496 -1.900527 30.443941 -0.082832 16.631186 29.225474 9.880300 -0.000000 -84.627201
-12.500099 16.788574 -1.476648 85.981536 89.156915 106.784930 -8.106428 1.516551 3.972516 -12.213522 -5.823298 -42.541634 -1.842750 0.947358 34.627159 1.794149 7.126143 -11.549315 -0.374300 0.000001 -34.019400 12.595988 -3.896888 1.164826 -0.019329 -5.019101 -6.441511 -0.206192 -2.007540 32.683562 -0.239297 16.611053 30.406152 10.223900 0.000000 -81.686000
-12.332402 16.780852 -1.477123 79.134926 88.821768 99.609694 -8.129915 1.477257 3.833120 -12.619005 -5.664614 -41.480652 -1.845911 0.915884 35.078739 1.910360 7.554690 -12.630454 -0.590700 -0.000000 -34.368399 12.669334 -3.860649 1.099926 -0.559615 -5.321793 -7.170885 -0.309007 -2.112497 34.954300 -0.412705 16.111107 31.571168 10.266900 -0.000000 -78.579400
-12.165337 16.781311 -1.477590 72.152286 88.458387 92.316665 -8.173340 1.450762 3.696385 -13.029862 -5.375267 -40.295346 -1.875104 0.856020 35.113530 2.008201 7.907028 -13.572138 -0.795800 0.000001 -34.999500 12.710887 -3.812541 1.047920 -1.058905 -5.568870 -8.003055 -0.406338 -2.213422 37.217719 -0.600829 15.061916 32.641113 9.924100 0.000000 -75.538700
-11.998948 16.789240 -1.478093 65.415877 88.059268 85.280431 -8.228626 1.444123 3.562368 -13.436121 -4.977434 -38.998015 -1.923476 0.774979 34.785406 2.085240 8.185880 -14.335778 -0.976000 0.000000 -35.754600 12.729582 -3.746077 1.004541 -1.519269 -5.764459 -8.907301 -0.501020 -2.309139 39.439284 -0.801874 13.446980 33.521306 9.149500 -0.000000 -72.772500
-11.833183 16.803807 -1.479250 59.220870 87.642004 78.797568 -8.295737 1.456725 3.432563 -13.804295 -4.488076 -37.627100 -1.981703 0.680533 34.174765 2.137677 8.386062 -14.893584 -1.119100 -0.000000 -36.507700 12.727187 -3.662461 0.970361 -1.909476 -5.898363 -9.861669 -0.594342 -2.399435 41.584278 -1.013477 11.280127 34.112210 7.932200 0.000001 -70.409000
-11.668151 16.824216 -1.480946 53.806622 87.215924 73.105346 -8.366330 1.489595 3.308179 -14.126437 -3.944683 -36.200537 -2.042350 0.578990 33.350245 2.165569 8.521696 -15.225068 -1.216600 -0.000000 -37.172000 12.714231 -3.561061 0.940763 -2.229729 -5.980928 -10.841966 -0.687508 -2.485728 43.624659 -1.231755 8.649307 34.314203 6.331400 -0.000000 -68.465500
-11.503844 16.849606 -1.483458 49.230320 86.807296 68.268235 -8.441456 1.537934 3.192919 -14.380761 -3.377836 -34.758303 -2.097913 0.476728 32.392160 2.168840 8.598735 -15.327769 -1.264700 -0.000000 -37.709701 12.691493 -3.448053 0.914957 -2.458153 -6.015888 -11.838239 -0.780118 -2.570008 45.534998 -1.450696 5.689354 34.047823 4.460700 0.000000 -66.863000
-11.340448 16.879266 -1.486373 45.548674 86.434222 64.345103 -8.515608 1.599628 3.089079 -14.568392 -2.825395 -33.320307 -2.144341 0.378498 31.359480 2.150554 8.632969 -15.212189 -1.264800 0.000000 -38.115700 12.665534 -3.326880 0.888108 -2.600542 -6.022141 -12.837374 -0.871440 -2.654699 47.294288 -1.662243 2.592579 33.267242 2.489400 -0.000000 -65.457100
-11.177862 16.912488 -1.489621 42.692816 86.122266 61.277530 -8.591045 1.670081 3.000714 -14.680776 -2.311660 -31.923145 -2.178877 0.288506 30.311221 2.113382 8.628829 -14.905903 -1.221900 0.000000 -38.415500 12.634462 -3.204353 0.860003 -2.646187 -6.010012 -13.839361 -0.959470 -2.740290 48.882745 -1.857567 -0.440978 31.978990 0.597400 -0.000001 -64.116700
-11.016249 16.948704 -1.492719 40.635784 85.886975 59.041735 -8.664861 1.747297 2.928828 -14.725302 -1.856462 -30.582484 -2.201985 0.208848 29.280345 2.061210 8.592704 -14.443409 -1.144101 0.000000 -38.653200 12.600897 -3.083593 0.828199 -2.604304 -5.996559 -14.839408 -1.041325 -2.826392 50.284852 -2.027748 -3.219568 30.236787 -1.052101 0.000000 -62.697500
-10.855552 16.987356 -1.495324 39.313525 85.741084 57.579260 -8.737199 1.828936 2.874042 -14.705177 -1.466191 -29.315975 -2.215433 0.140271 28.288498 1.996974 8.522641 -13.863854 -1.039901 0.000000 -38.889300 12.564206 -2.967437 0.793238 -2.478453 -5.991885 -15.838240 -1.113108 -2.910492 51.488000 -2.165591 -5.602287 28.140136 -2.351400 0.000000 -61.154701
-10.695777 17.027992 -1.497173 38.672923 85.690211 56.838798 -8.807860 1.913339 2.835081 -14.626257 -1.137453 -28.131754 -2.222026 0.082078 27.341286 1.923106 8.414758 -13.203876 -0.917900 0.000001 -39.194600 12.524133 -2.856783 0.756035 -2.277099 -6.003950 -16.836326 -1.170577 -2.989375 52.485925 -2.266018 -7.506257 25.814327 -3.258000 0.000001 -59.454000
-10.536857 17.070078 -1.498057 38.667701 85.732189 56.773452 -8.877105 1.999203 2.809521 -14.493868 -0.859765 -27.030722 -2.224753 0.032658 26.432757 1.841161 8.263613 -12.492664 -0.785600 -0.000000 -39.641600 12.480228 -2.751121 0.717910 -2.009822 -6.037171 -17.834383 -1.210030 -3.059741 53.278091 -2.326803 -8.908749 23.393114 -3.790000 0.000000 -57.678400
-10.378719 17.113145 -1.497968 39.253609 85.858407 57.335953 -8.946187 2.085501 2.794107 -14.312752 -0.616961 -26.008343 -2.226192 -0.009928 25.550382 1.752017 8.064205 -11.750185 -0.648600 -0.000000 -40.291700 12.431509 -2.649268 0.680175 -1.686751 -6.093212 -18.833552 -1.229105 -3.119022 53.870449 -2.348343 -9.833203 20.999689 -4.007200 -0.000000 -55.900700
-10.221144 17.156644 -1.496942 40.404725 86.054482 58.499972 -9.015951 2.171871 2.787562 -14.088563 -0.397616 -25.061605 -2.227894 -0.047610 24.680878 1.656834 7.817253 -10.985572 -0.510900 0.000000 -41.179301 12.377690 -2.549333 0.644826 -1.319078 -6.172821 -19.843337 -1.227282 -3.165933 54.278661 -2.333100 -10.332282 18.726345 -3.986500 -0.000000 -54.161700
-10.064356 17.200131 -1.495470 41.997489 86.305840 60.124006 -9.094203 2.255600 2.779879 -13.815601 -0.165707 -24.166581 -2.230425 -0.080973 23.812120 1.553950 7.511986 -10.201964 -0.375601 -0.000000 -42.322900 12.312699 -2.451643 0.610324 -0.908278 -6.264506 -20.843116 -1.205468 -3.199488 54.504678 -2.288468 -10.494535 16.668765 -3.817900 0.000001 -52.850200
-9.907901 17.242996 -1.493659 44.021886 86.592913 62.204752 -9.180765 2.337318 2.774691 -13.503217 0.074300 -23.330184 -2.233003 -0.111017 22.941300 1.446095 7.162540 -9.393063 -0.244099 -0.000000 -43.682600 12.237318 -2.354453 0.580068 -0.465664 -6.367723 -21.857891 -1.166024 -3.220963 54.578042 -2.219143 -10.389133 14.835885 -3.561100 -0.000000 -51.783000
-9.751778 17.284795 -1.491873 46.385769 86.899370 64.641797 -9.280043 2.415735 2.768425 -13.152828 0.334463 -22.541175 -2.234066 -0.137473 22.069883 1.334291 6.775491 -8.551616 -0.117699 -0.000000 -45.202600 12.148256 -2.258048 0.554664 0.004145 -6.471086 -22.883594 -1.111642 -3.231378 54.510895 -2.133440 -10.101252 13.242280 -3.271200 -0.000000 -51.122000
-9.595901 17.325068 -1.490397 48.977954 87.212937 67.319838 -9.396210 2.489306 2.758870 -12.765243 0.620717 -21.795239 -2.231297 -0.159455 21.209106 1.220238 6.360331 -7.670891 0.002100 -0.000000 -46.812001 12.042052 -2.163792 0.535026 0.499882 -6.562515 -23.919680 -1.044552 -3.232461 54.316590 -2.038701 -9.704498 11.863448 -2.982400 -0.000000 -50.841800
-9.440184 17.363478 -1.489352 51.725418 87.522476 70.163669 -9.529324 2.557578 2.746208 -12.347400 0.925914 -21.089039 -2.222348 -0.176192 20.372501 1.107238 5.935367 -6.746460 0.114300 -0.000000 -48.431501 11.918346 -2.072182 0.522884 1.014650 -6.631207 -24.967347 -0.966612 -3.225898 54.005885 -1.941575 -9.259952 10.660284 -2.714400 0.000000 -50.902900
-9.284531 17.399682 -1.488725 54.551409 87.821139 73.095686 -9.678637 2.619981 2.730392 -11.905780 1.241814 -20.421170 -2.205227 -0.186852 19.576533 0.998576 5.517891 -5.779225 0.217700 -0.000000 -49.996500 11.777026 -1.984207 0.519931 1.542743 -6.665677 -26.024090 -0.878725 -3.213070 53.584111 -1.847351 -8.814612 9.583570 -2.476500 0.000001 -51.201200
-9.128745 17.433512 -1.488030 57.494617 88.097187 76.157001 -9.836255 2.678330 2.714433 -11.459661 1.542895 -19.786986 -2.179106 -0.191554 18.829400 0.899233 5.137583 -4.772755 0.312700 -0.000000 -51.454000 11.623897 -1.897663 0.528158 2.064332 -6.660883 -27.091268 -0.781596 -3.195131 53.056554 -1.759228 -8.394477 8.582899 -2.268601 -0.000000 -51.595001
-8.972930 17.464833 -1.487810 60.306786 88.367171 79.091843 -10.012149 2.727871 2.691393 -10.986245 1.861132 -19.195248 -2.142907 -0.188590 18.164688 0.807066 4.771412 -3.751200 0.395100 -0.000000 -52.801801 11.449187 -1.820876 0.550029 2.604866 -6.592228 -28.146333 -0.673913 -3.171445 52.410656 -1.681008 -8.030876 7.624292 -2.093900 0.000000 -51.963500
-8.816614 17.493535 -1.486811 63.262959 88.608258 82.184795 -10.186999 2.774466 2.669155 -10.527095 2.146272 -18.634580 -2.098703 -0.180481 17.565952 0.728678 4.465002 -2.721026 0.468800 -0.000000 -54.022900 11.268614 -1.745615 0.587833 3.118683 -6.467872 -29.198839 -0.556614 -3.142505 51.653417 -1.611855 -7.710986 6.674643 -1.941800 0.000000 -52.143101
-8.659649 17.519633 -1.484836 66.363923 88.823988 85.434850 -10.360236 2.817356 2.645593 -10.081294 2.408183 -18.105733 -2.048228 -0.167993 17.039058 0.663062 4.209510 -1.705188 0.533400 0.000001 -55.149600 11.082055 -1.674137 0.644264 3.604906 -6.277922 -30.236682 -0.429320 -3.107277 50.777953 -1.551872 -7.431715 5.724696 -1.808399 0.000000 -52.045300
-8.501713 17.543070 -1.481305 69.730120 89.008539 88.963661 -10.525535 2.858162 2.621841 -9.661527 2.641418 -17.603275 -1.994261 -0.153154 16.573326 0.610181 4.007313 -0.720759 0.590500 -0.000000 -56.223800 10.894909 -1.605178 0.721788 4.046806 -6.022651 -31.255758 -0.292598 -3.064985 49.784119 -1.499382 -7.175903 4.777194 -1.687400 -0.000000 -51.633300
-8.342387 17.563870 -1.475943 73.372255 89.162441 92.783696 -10.681410 2.896846 2.597525 -9.269650 2.853476 -17.126133 -1.939397 -0.137804 16.158873 0.567916 3.846804 0.216840 0.640300 0.000000 -57.303000 10.708775 -1.539927 0.823083 4.438404 -5.700169 -32.252092 -0.147023 -3.014620 48.670570 -1.452517 -6.927963 3.847263 -1.575700 0.000000 -50.941100
